# xmcd
# 
# Track frame offsets:
#     150
#     14335
#     29240
#     45070
#     62237
#     78300
#     96122
#     112987
#     128272
#     147232
#     160345
#     180750
#     199692
#     213355
#     229740
#     248167
#     259782
#     276387
#     288627
#     304400
# 
# Disc length: 4275
# 
# Revision: 8
# Processed by: cddbd v1.5.2PL0 Copyright (c) Steve Scherf et al.
# Submitted via: fre:ac v1.0.17
# 
DISCID=1610b114
DTITLE=かぐや姫 - Best Dreamin? Disc 1
DYEAR=2000
DGENRE=Folk
TTITLE0=神田川
TTITLE1=雪が降る日に
TTITLE2=置手紙
TTITLE3=おはようおやすみ日曜日
TTITLE4=けれど生きている
TTITLE5=青春
TTITLE6=アビーロードの街
TTITLE7=加茂の流れに
TTITLE8=大きな片想い
TTITLE9=君がよければ
TTITLE10=好きだった人
TTITLE11=遙かな想い
TTITLE12=突然さよなら
TTITLE13=夏この頃
TTITLE14=そんな人ちがい
TTITLE15=黄色い船
TTITLE16=湘南　夏
TTITLE17=僕の胸でおやすみ
TTITLE18=あの人の手紙
TTITLE19=おもかげ色の空
EXTD=YEAR: 2000
EXTT0=
EXTT1=
EXTT2=
EXTT3=
EXTT4=
EXTT5=
EXTT6=
EXTT7=
EXTT8=
EXTT9=
EXTT10=
EXTT11=
EXTT12=
EXTT13=
EXTT14=
EXTT15=
EXTT16=
EXTT17=
EXTT18=
EXTT19=
PLAYORDER=
